M48
; DRILL file {KiCad 7.0.10} date Tue Mar 12 14:46:00 2024
; FORMAT={-:-/ absolute / inch / decimal}
; #@! TF.CreationDate,2024-03-12T14:46:00+03:00
; #@! TF.GenerationSoftware,Kicad,Pcbnew,7.0.10
; #@! TF.FileFunction,Plated,1,2,PTH
FMAT,2
INCH
; #@! TA.AperFunction,Plated,PTH,ComponentDrill
T1C0.0315
; #@! TA.AperFunction,Plated,PTH,ComponentDrill
T2C0.0354
; #@! TA.AperFunction,Plated,PTH,ComponentDrill
T3C0.0394
; #@! TA.AperFunction,Plated,PTH,ComponentDrill
T4C0.0433
; #@! TA.AperFunction,Plated,PTH,ComponentDrill
T5C0.0591
%
G90
G05
T1
X4.14Y-2.8016
X4.14Y-2.9
X4.14Y-3.0508
X4.14Y-3.1492
X4.28Y-2.05
X4.52Y-2.9035
X4.52Y-3.0965
X4.68Y-2.05
X4.8504Y-2.1504
X4.8504Y-2.2504
X4.8504Y-2.3504
X4.8504Y-2.4504
X4.8504Y-2.5504
X4.8504Y-2.6504
X4.8504Y-2.7504
X4.8504Y-2.8504
X4.8504Y-2.9504
X4.8504Y-3.0504
X4.8504Y-3.1504
X4.8504Y-3.2504
X4.8504Y-3.3504
X4.8504Y-3.4504
X5.1504Y-2.1504
X5.1504Y-2.2504
X5.1504Y-2.3504
X5.1504Y-2.4504
X5.1504Y-2.5504
X5.1504Y-2.6504
X5.1504Y-2.7504
X5.1504Y-2.8504
X5.1504Y-2.9504
X5.1504Y-3.0504
X5.1504Y-3.1504
X5.1504Y-3.2504
X5.1504Y-3.3504
X5.1504Y-3.4504
X5.49Y-2.7616
X5.49Y-2.9584
X6.0433Y-3.2252
X6.0433Y-3.6252
T2
X5.7Y-3.62
X5.7Y-3.72
T3
X4.311Y-3.315
X4.311Y-3.415
X4.311Y-3.515
X4.311Y-3.615
X4.37Y-2.2625
X4.37Y-2.3625
X4.37Y-2.4625
X4.37Y-2.5625
X4.37Y-2.6625
X5.39Y-3.38
X5.39Y-3.48
X5.4331Y-2.0228
X5.4331Y-2.1228
X5.4331Y-2.2228
X5.4331Y-2.3228
X5.4331Y-2.4228
X5.4331Y-2.5228
X5.4331Y-2.6228
X5.6988Y-3.0502
X5.6988Y-3.1502
X5.6988Y-3.2502
X5.7264Y-2.18
X5.7988Y-3.0502
X5.7988Y-3.1502
X5.7988Y-3.2502
X5.86Y-2.74
X5.9232Y-2.18
X6.1553Y-2.74
X6.43Y-2.1147
X6.43Y-2.41
T4
X6.48Y-2.81
X6.48Y-2.91
X6.48Y-3.01
T5
X6.44Y-3.4831
X6.44Y-3.68
M30
