%TF.GenerationSoftware,KiCad,Pcbnew,7.0.10*%
%TF.CreationDate,2024-03-12T14:55:32+03:00*%
%TF.ProjectId,atmega328p,61746d65-6761-4333-9238-702e6b696361,rev?*%
%TF.SameCoordinates,Original*%
%TF.FileFunction,Copper,L1,Top*%
%TF.FilePolarity,Positive*%
%FSLAX46Y46*%
G04 Gerber Fmt 4.6, Leading zero omitted, Abs format (unit mm)*
G04 Created by KiCad (PCBNEW 7.0.10) date 2024-03-12 14:55:32*
%MOMM*%
%LPD*%
G01*
G04 APERTURE LIST*
%TA.AperFunction,ComponentPad*%
%ADD10C,1.600000*%
%TD*%
%TA.AperFunction,ComponentPad*%
%ADD11O,1.600000X1.600000*%
%TD*%
%TA.AperFunction,ComponentPad*%
%ADD12R,2.000000X2.000000*%
%TD*%
%TA.AperFunction,ComponentPad*%
%ADD13C,2.000000*%
%TD*%
%TA.AperFunction,ComponentPad*%
%ADD14R,1.700000X1.700000*%
%TD*%
%TA.AperFunction,ComponentPad*%
%ADD15O,1.700000X1.700000*%
%TD*%
%TA.AperFunction,ComponentPad*%
%ADD16R,3.000000X3.000000*%
%TD*%
%TA.AperFunction,ComponentPad*%
%ADD17C,3.000000*%
%TD*%
%TA.AperFunction,ComponentPad*%
%ADD18R,1.600000X1.600000*%
%TD*%
%TA.AperFunction,ComponentPad*%
%ADD19R,1.800000X1.800000*%
%TD*%
%TA.AperFunction,ComponentPad*%
%ADD20C,1.800000*%
%TD*%
%TA.AperFunction,ComponentPad*%
%ADD21C,1.500000*%
%TD*%
%TA.AperFunction,ComponentPad*%
%ADD22R,2.000000X1.905000*%
%TD*%
%TA.AperFunction,ComponentPad*%
%ADD23O,2.000000X1.905000*%
%TD*%
G04 APERTURE END LIST*
D10*
%TO.P,R2,1*%
%TO.N,Net-(U2-~{RESET}{slash}PC6)*%
X118872000Y-52070000D03*
D11*
%TO.P,R2,2*%
%TO.N,/signal/RST*%
X108712000Y-52070000D03*
%TD*%
D10*
%TO.P,C5,1*%
%TO.N,Net-(U2-XTAL2{slash}PB7)*%
X105156000Y-79990000D03*
%TO.P,C5,2*%
%TO.N,/signal/GND*%
X105156000Y-77490000D03*
%TD*%
%TO.P,C4,1*%
%TO.N,Net-(U2-XTAL1{slash}PB6)*%
X105156000Y-73660000D03*
%TO.P,C4,2*%
%TO.N,/signal/GND*%
X105156000Y-71160000D03*
%TD*%
D12*
%TO.P,C1,1*%
%TO.N,/power/+5V*%
X150449677Y-55372000D03*
D13*
%TO.P,C1,2*%
%TO.N,/signal/GND*%
X145449677Y-55372000D03*
%TD*%
D10*
%TO.P,R1,1*%
%TO.N,/power/+5V*%
X153500000Y-81920000D03*
D11*
%TO.P,R1,2*%
X153500000Y-92080000D03*
%TD*%
D14*
%TO.P,J1,1,Pin_1*%
%TO.N,/signal/PD0*%
X110998000Y-57468000D03*
D15*
%TO.P,J1,2,Pin_2*%
%TO.N,/signal/PD1*%
X110998000Y-60008000D03*
%TO.P,J1,3,Pin_3*%
%TO.N,/signal/PD2*%
X110998000Y-62548000D03*
%TO.P,J1,4,Pin_4*%
%TO.N,/signal/PD3*%
X110998000Y-65088000D03*
%TO.P,J1,5,Pin_5*%
%TO.N,/signal/PD4*%
X110998000Y-67628000D03*
%TD*%
D14*
%TO.P,J4,1,Pin_1*%
%TO.N,/signal/PB1*%
X136906000Y-88392000D03*
D15*
%TO.P,J4,2,Pin_2*%
%TO.N,/signal/PB2*%
X136906000Y-85852000D03*
%TD*%
D10*
%TO.P,C6,1*%
%TO.N,/power/+5V*%
X139446000Y-75144000D03*
%TO.P,C6,2*%
%TO.N,/signal/GND*%
X139446000Y-70144000D03*
%TD*%
D12*
%TO.P,C3,1*%
%TO.N,/power/+5V*%
X156344000Y-69596000D03*
D13*
%TO.P,C3,2*%
%TO.N,/signal/GND*%
X148844000Y-69596000D03*
%TD*%
D16*
%TO.P,J6,1,Pin_1*%
%TO.N,/power/+12V*%
X163576000Y-93472000D03*
D17*
%TO.P,J6,2,Pin_2*%
%TO.N,/signal/GND*%
X163576000Y-88472000D03*
%TD*%
D14*
%TO.P,J2,1,Pin_1*%
%TO.N,/signal/GND*%
X147290000Y-77475000D03*
D15*
%TO.P,J2,2,Pin_2*%
%TO.N,/signal/SCK*%
X144750000Y-77475000D03*
%TO.P,J2,3,Pin_3*%
%TO.N,/signal/RST*%
X147290000Y-80015000D03*
%TO.P,J2,4,Pin_4*%
%TO.N,/signal/MISO*%
X144750000Y-80015000D03*
%TO.P,J2,5,Pin_5*%
%TO.N,/power/+5V*%
X147290000Y-82555000D03*
%TO.P,J2,6,Pin_6*%
%TO.N,/signal/MOSI*%
X144750000Y-82555000D03*
%TD*%
D18*
%TO.P,U2,1,~{RESET}/PC6*%
%TO.N,Net-(U2-~{RESET}{slash}PC6)*%
X123200000Y-54620000D03*
D11*
%TO.P,U2,2,PD0*%
%TO.N,/signal/PD0*%
X123200000Y-57160000D03*
%TO.P,U2,3,PD1*%
%TO.N,/signal/PD1*%
X123200000Y-59700000D03*
%TO.P,U2,4,PD2*%
%TO.N,/signal/PD2*%
X123200000Y-62240000D03*
%TO.P,U2,5,PD3*%
%TO.N,/signal/PD3*%
X123200000Y-64780000D03*
%TO.P,U2,6,PD4*%
%TO.N,/signal/PD4*%
X123200000Y-67320000D03*
%TO.P,U2,7,VCC*%
%TO.N,/power/+5V*%
X123200000Y-69860000D03*
%TO.P,U2,8,GND*%
%TO.N,/signal/GND*%
X123200000Y-72400000D03*
%TO.P,U2,9,XTAL1/PB6*%
%TO.N,Net-(U2-XTAL1{slash}PB6)*%
X123200000Y-74940000D03*
%TO.P,U2,10,XTAL2/PB7*%
%TO.N,Net-(U2-XTAL2{slash}PB7)*%
X123200000Y-77480000D03*
%TO.P,U2,11,PD5*%
%TO.N,/signal/PD5*%
X123200000Y-80020000D03*
%TO.P,U2,12,PD6*%
%TO.N,/signal/PD6*%
X123200000Y-82560000D03*
%TO.P,U2,13,PD7*%
%TO.N,/signal/PD7*%
X123200000Y-85100000D03*
%TO.P,U2,14,PB0*%
%TO.N,/signal/PB0*%
X123200000Y-87640000D03*
%TO.P,U2,15,PB1*%
%TO.N,/signal/PB1*%
X130820000Y-87640000D03*
%TO.P,U2,16,PB2*%
%TO.N,/signal/PB2*%
X130820000Y-85100000D03*
%TO.P,U2,17,PB3*%
%TO.N,/signal/MOSI*%
X130820000Y-82560000D03*
%TO.P,U2,18,PB4*%
%TO.N,/signal/MISO*%
X130820000Y-80020000D03*
%TO.P,U2,19,PB5*%
%TO.N,/signal/SCK*%
X130820000Y-77480000D03*
%TO.P,U2,20,AVCC*%
%TO.N,/power/+5V*%
X130820000Y-74940000D03*
%TO.P,U2,21,AREF*%
%TO.N,/signal/AREF*%
X130820000Y-72400000D03*
%TO.P,U2,22,GND*%
%TO.N,/signal/GND*%
X130820000Y-69860000D03*
%TO.P,U2,23,PC0*%
%TO.N,/signal/PC0*%
X130820000Y-67320000D03*
%TO.P,U2,24,PC1*%
%TO.N,/signal/PC1*%
X130820000Y-64780000D03*
%TO.P,U2,25,PC2*%
%TO.N,/signal/PC2*%
X130820000Y-62240000D03*
%TO.P,U2,26,PC3*%
%TO.N,/signal/PC3*%
X130820000Y-59700000D03*
%TO.P,U2,27,PC4*%
%TO.N,/signal/PC4*%
X130820000Y-57160000D03*
%TO.P,U2,28,PC5*%
%TO.N,/signal/PC5*%
X130820000Y-54620000D03*
%TD*%
D19*
%TO.P,D1,1,K*%
%TO.N,/signal/GND*%
X144780000Y-94488000D03*
D20*
%TO.P,D1,2,A*%
%TO.N,/power/+5V*%
X144780000Y-91948000D03*
%TD*%
D21*
%TO.P,Y1,1,1*%
%TO.N,Net-(U2-XTAL2{slash}PB7)*%
X114808000Y-78650000D03*
%TO.P,Y1,2,2*%
%TO.N,Net-(U2-XTAL1{slash}PB6)*%
X114808000Y-73750000D03*
%TD*%
D14*
%TO.P,J3,1,Pin_1*%
%TO.N,/signal/PD5*%
X109500000Y-84200000D03*
D15*
%TO.P,J3,2,Pin_2*%
%TO.N,/signal/PD6*%
X109500000Y-86740000D03*
%TO.P,J3,3,Pin_3*%
%TO.N,/signal/PD7*%
X109500000Y-89280000D03*
%TO.P,J3,4,Pin_4*%
%TO.N,/signal/PB0*%
X109500000Y-91820000D03*
%TD*%
D12*
%TO.P,C2,1*%
%TO.N,/power/+12V*%
X163322000Y-61214000D03*
D13*
%TO.P,C2,2*%
%TO.N,/signal/GND*%
X163322000Y-53714000D03*
%TD*%
D22*
%TO.P,U1,1,IN*%
%TO.N,/power/+12V*%
X164592000Y-71374000D03*
D23*
%TO.P,U1,2,GND*%
%TO.N,/signal/GND*%
X164592000Y-73914000D03*
%TO.P,U1,3,OUT*%
%TO.N,/power/+5V*%
X164592000Y-76454000D03*
%TD*%
D14*
%TO.P,J5,1,Pin_1*%
%TO.N,/signal/PC5*%
X138000000Y-51380000D03*
D15*
%TO.P,J5,2,Pin_2*%
%TO.N,/signal/PC4*%
X138000000Y-53920000D03*
%TO.P,J5,3,Pin_3*%
%TO.N,/signal/PC3*%
X138000000Y-56460000D03*
%TO.P,J5,4,Pin_4*%
%TO.N,/signal/PC2*%
X138000000Y-59000000D03*
%TO.P,J5,5,Pin_5*%
%TO.N,/signal/PC1*%
X138000000Y-61540000D03*
%TO.P,J5,6,Pin_6*%
%TO.N,/signal/PC0*%
X138000000Y-64080000D03*
%TO.P,J5,7,Pin_7*%
%TO.N,/signal/AREF*%
X138000000Y-66620000D03*
%TD*%
M02*
